Coordinates
version=1
nRows=14
nColumns=40
inDegrees=yes

Units are S.I. units (second, meters, Newtons, ...)
Angles are in degrees.

endheader
time	pelvis_tilt	pelvis_list	pelvis_rotation	pelvis_tx	pelvis_ty	pelvis_tz	hip_flexion_r	hip_adduction_r	hip_rotation_r	knee_angle_r	knee_angle_r_beta	ankle_angle_r	subtalar_angle_r	mtp_angle_r	hip_flexion_l	hip_adduction_l	hip_rotation_l	knee_angle_l	knee_angle_l_beta	ankle_angle_l	subtalar_angle_l	mtp_angle_l	lumbar_extension	lumbar_bending	lumbar_rotation	arm_flex_r	arm_add_r	arm_rot_r	elbow_flex_r	pro_sup_r	wrist_flex_r	wrist_dev_r	arm_flex_l	arm_add_l	arm_rot_l	elbow_flex_l	pro_sup_l	wrist_flex_l	wrist_dev_l
     55.73000000	     -6.38873364	     -5.60185913	     13.09407895	      1.05092532	      0.92426959	      0.45985192	      5.75457602	      1.47515227	    -16.95371528	     17.47781848	     17.47781848	     15.31422622	     -6.53244959	     -1.44227771	     26.26115596	     -6.19858155	      4.88412807	     22.34160725	     22.34160725	      6.89827805	     -6.40560476	     -0.42181190	     -8.04720393	      3.04278180	      4.97246632	     56.02670361	    -14.18795672	      6.88973811	     67.39036917	     44.91816796	      0.00000000	      0.00000000	    -11.29620564	     -9.39835677	     23.73050378	     28.27937760	     42.74011220	      0.00000000	      0.00000000
     55.75228571	     -6.36369640	     -5.64627661	     12.45855104	      1.05135665	      0.92518860	      0.45444299	      5.45639272	      1.15206114	    -16.60270304	     17.62095738	     17.62095738	     14.99294261	     -6.09461705	     -1.45011438	     25.74457201	     -6.13245444	      4.48404921	     22.44517669	     22.44517669	      7.29931230	     -6.80020886	     -0.41089395	     -7.93647149	      3.21758859	      4.87292465	     55.02513365	    -14.02703458	      6.94905020	     67.11469143	     44.92194570	      0.00000000	      0.00000000	    -10.98055469	     -9.62459686	     23.64706158	     28.32262201	     42.76369335	      0.00000000	      0.00000000
     55.77457143	     -6.33622979	     -5.46286988	     11.78759292	      1.05188756	      0.92630845	      0.44880076	      5.12335700	      0.44439690	    -16.72466711	     17.83997514	     17.83997514	     14.62000771	     -4.91029694	     -2.30071350	     25.08820605	     -5.80120599	      4.07187827	     22.48957017	     22.48957017	      8.28199036	     -7.11412305	      1.36226893	     -7.81433080	      3.12676664	      5.15232453	     53.35864666	    -13.89211814	      5.52875470	     66.91164471	     45.00896136	      0.00000000	      0.00000000	    -10.35064080	     -9.63469959	     22.55792369	     27.91719439	     43.18402303	      0.00000000	      0.00000000
     55.79685714	     -6.23276989	     -5.55089735	     11.08651208	      1.05237589	      0.92727191	      0.44344167	      4.87047847	      0.14896637	    -16.25883839	     18.15477021	     18.15477021	     14.31249012	     -4.59394140	     -2.30999567	     24.48184240	     -5.80782419	      3.59452128	     22.57489387	     22.57489387	      8.65426681	     -7.47872884	      1.29428604	     -7.74129999	      3.41777880	      4.96040816	     51.88641706	    -13.58963412	      5.75384707	     66.51815036	     45.00823189	      0.00000000	      0.00000000	     -9.97113189	     -9.83001319	     22.48663891	     27.98900786	     43.20578037	      0.00000000	      0.00000000
     55.81914286	     -6.09225804	     -5.56522313	     10.35639789	      1.05296437	      0.92828054	      0.43808105	      4.65526629	     -0.26405247	    -15.80245409	     18.63774614	     18.63774614	     14.02565109	     -4.28343755	     -2.38807711	     23.76487720	     -5.74760951	      3.06081115	     22.58689294	     22.58689294	      9.03873177	     -7.82266998	      1.25070113	     -7.66200969	      3.60474504	      4.78543063	     50.05172977	    -13.31357588	      5.98435602	     65.96251907	     45.01126861	      0.00000000	      0.00000000	     -9.51788224	    -10.01278665	     22.39724279	     28.07378048	     43.23254713	      0.00000000	      0.00000000
     55.84142857	     -6.05248868	     -5.31999553	      9.53932925	      1.05336193	      0.92914433	      0.43267051	      4.85949476	     -1.13331876	    -15.40775481	     19.77859542	     19.77859542	     13.81207731	     -3.85715030	     -2.89755952	     22.95219309	     -5.39264740	      2.38577798	     22.32745314	     22.32745314	      9.37427125	     -8.18813564	      1.38713120	     -7.51716864	      3.47963750	      4.94324273	     47.93329459	    -13.43430683	      5.97056957	     64.96203878	     45.04011818	      0.00000000	      0.00000000	     -8.74531227	    -10.20564647	     22.15815518	     28.07740364	     43.30829660	      0.00000000	      0.00000000
     55.86371429	     -5.89663878	     -5.26001021	      8.75604253	      1.05376897	      0.92991550	      0.42736658	      5.05356748	     -1.77446900	    -14.90672670	     21.01139184	     21.01139184	     13.46899347	     -3.65820874	     -3.48432423	     22.22517594	     -5.21136218	      1.89221764	     22.35727090	     22.35727090	      9.75877648	     -8.70834028	      1.46981447	     -7.43294621	      3.61067339	      4.90200484	     45.63606437	    -13.29997781	      6.03001882	     63.93885158	     45.06575086	      0.00000000	      0.00000000	     -7.89150353	    -10.31558794	     21.96026623	     28.00905164	     43.37792991	      0.00000000	      0.00000000
     55.88600000	     -5.71423965	     -5.17020622	      7.94088148	      1.05400028	      0.93048940	      0.42210882	      5.49453718	     -2.49487625	    -14.27110477	     22.69569634	     22.69569634	     13.07426562	     -3.77604755	     -4.33991420	     21.52142683	     -4.99099888	      1.37099746	     22.45396153	     22.45396153	     10.15467953	     -9.30080713	      1.56829730	     -7.42023229	      3.74796256	      4.87417669	     43.10681835	    -13.18618344	      6.12267237	     62.62606246	     45.09874369	      0.00000000	      0.00000000	     -6.85637807	    -10.40745865	     21.77105517	     27.91565427	     43.44851725	      0.00000000	      0.00000000
     55.90828571	     -5.21109203	     -5.40359649	      7.24315840	      1.05441655	      0.93141921	      0.41695713	      5.51299631	     -2.76920812	    -13.72202785	     24.11831984	     24.11831984	     12.56695040	     -3.75917448	     -4.71019569	     20.61699700	     -5.13520206	      1.02475851	     22.68460730	     22.68460730	     10.59979532	     -9.79174094	      1.51915329	     -7.74549507	      4.34870448	      4.37672013	     40.38846367	    -12.70705741	      6.46517804	     61.64317906	     45.10729262	      0.00000000	      0.00000000	     -5.94455396	    -10.48079140	     21.69435934	     28.06786862	     43.48000139	      0.00000000	      0.00000000
     55.93057143	     -5.19244685	     -4.97571546	      6.30779020	      1.05401460	      0.93092480	      0.41182413	      7.10280791	     -4.04748987	    -12.57678255	     27.52809417	     27.52809417	     11.99964263	     -4.80205908	     -6.34844203	     20.24224051	     -4.50157204	      0.43008291	     23.09595503	     23.09595503	     11.05550286	    -10.64142632	      1.61860784	     -7.59765587	      4.07018234	      4.73981036	     37.63980801	    -13.06339003	      6.53953976	     59.41197551	     45.17136390	      0.00000000	      0.00000000	     -4.36788795	    -10.62416211	     21.50380996	     28.00531265	     43.55512198	      0.00000000	      0.00000000
     55.95285714	     -4.91050090	     -4.98303335	      5.50530101	      1.05368998	      0.93071309	      0.40687537	      8.11208950	     -4.55617716	    -11.22780520	     29.97670111	     29.97670111	      9.33510167	     -7.29677264	    -12.10507338	     19.79425185	     -4.23841411	      0.46853076	     23.73154193	     23.73154193	     11.79578798	    -11.97503238	      2.76384100	     -7.56492726	      4.38435053	      4.69874441	     35.39350104	    -12.47615187	      5.84928898	     54.74171646	     45.36030304	      0.00000000	      0.00000000	     -2.16912938	    -10.20801526	     21.41643202	     25.85948169	     43.71864517	      0.00000000	      0.00000000
     55.97514286	     -4.54174357	     -4.81812278	      4.68522700	      1.05318203	      0.93000285	      0.40202088	      9.61879515	     -5.45017520	    -10.14586959	     33.70232454	     33.70232454	      8.44693179	     -8.23722816	    -13.23810774	     19.33772106	     -3.92764547	     -0.07016965	     24.51291060	     24.51291060	     12.40780867	    -12.60235053	      2.58423880	     -7.85603710	      4.49583266	      4.48769710	     32.39606574	    -12.44466858	      6.12863295	     53.07496227	     45.39274632	      0.00000000	      0.00000000	     -0.67434578	    -10.43257473	     21.23133171	     26.34747436	     43.78457875	      0.00000000	      0.00000000
     55.99742857	     -4.22819153	     -4.70371684	      3.86749938	      1.05234381	      0.92876203	      0.39739953	     11.45705384	     -6.15143669	     -8.72817220	     37.73113500	     37.73113500	      7.20289201	     -9.77892324	    -14.32181262	     19.11345682	     -3.62173541	     -0.41242967	     25.53010775	     25.53010775	     13.02324847	    -13.54931872	      2.53598692	     -8.07820021	      4.68733103	      4.51307431	     29.34377925	    -12.62248060	      6.36003273	     50.75831074	     45.45040917	      0.00000000	      0.00000000	      1.11867500	    -10.62882205	     21.06559710	     26.79851318	     43.85271640	      0.00000000	      0.00000000
     56.01971429	     -3.87387286	     -4.74718530	      3.11181287	      1.05136185	      0.92737622	      0.39310287	     13.23831112	     -6.43826528	     -7.11624721	     41.45694605	     41.45694605	      4.65239047	    -12.60917232	    -17.61462373	     19.00885953	     -3.45899973	     -0.56350885	     26.81283074	     26.81283074	     14.24548876	    -14.36763710	      3.97552428	     -8.20826613	      5.04036351	      4.25998120	     27.32182895	    -12.05971023	      5.79881569	     45.01199512	     45.67285894	      0.00000000	      0.00000000	      3.26688224	    -10.62502824	     21.11100150	     26.08838721	     43.97083371	      0.00000000	      0.00000000
